PathFileType	4	(X/Y/Z)	C:/Users/beibeiliu/ov580/test_trc/User3\out7_training_dense_right.trc
DataRate	CameraRate	NumFrames	NumMarkers	Units	OrigDataRate	OrigDataStartFrame	OrigNumFrames
120	120	12	19	mm	120	63	500
Frame#	Time	ThumbCMC			ThumbMCP			ThumbIP			ThumbTip			IndexMCP			IndexPIP			IndexTip			MiddleMCP			MiddlePIP			MiddleTip			RingMCP			RingPIP			RingTip			PinkyMCP			PinkyPIP			PinkyTip			BackHand1			BackHand2			BackHand3	
		X0	Y0	Z0	X1	Y1	Z1	X2	Y2	Z2	X3	Y3	Z3	X4	Y4	Z4	X5	Y5	Z5	X6	Y6	Z6	X7	Y7	Z7	X8	Y8	Z8	X9	Y9	Z9	X10	Y10	Z10	X11	Y11	Z11	X12	Y12	Z12	X13	Y13	Z13	X14	Y14	Z14	X15	Y15	Z15	X16	Y16	Z16	X17	Y17	Z17	X18	Y18	Z18	
62	0.516667	101.559	47.3292	47.5476	87.0324	37.8229	22.711	76.3729	33.0671	-8.09311	70.8059	26.5983	-25.8	117.069	72.3597	-20.9432	112.177	76.2136	-46.4627	103.729	80.4214	-72.8793	139.7	75.1338	-31.6389	132.53	76.6417	-56.3285	131.098	74.5674	-90.5437	160.045	64.686	-20.4683	157.084	71.2006	-48.4167	160.374	69.8206	-77.1481	180.014	49.7819	-6.53073	182.854	51.7454	-31.1935	184.826	49.0019	-56.0238	161.042	64.8484	30.0293	166.11	64.037	59.9684	130.143	70.9695	40.8552	
63	0.525	103.295	42.0717	43.9846	89.4292	29.9423	20.7192	76.0069	21.5875	-4.61579	69.3708	11.9811	-26.1711	120.299	66.0992	-24.6003	108.645	71.007	-51.4334	109.891	70.9902	-77.1213	143.465	67.8863	-31.2097	138.397	69.689	-56.6827	137.425	67.7188	-93.7871	164.103	59.8968	-21.4278	165.174	63.7858	-48.0295	166.26	61.7583	-74.5979	183.563	46.3429	-7.31273	185.728	47.2313	-28.3348	193.411	44.8857	-53.0913	164.166	64.5845	25.2572	165.947	62.689	58.7556	129.61	67.5847	38.4948	
64	0.533333	107.18	37.4786	48.5862	88.9899	23.1416	20.2618	76.719	11.0776	0.60975	71.7215	1.22021	-22.1747	116.931	61.9159	-23.7415	109.066	64.4275	-54.5905	108.876	64.3997	-78.3601	140.745	64.6012	-32.361	141.554	64.9108	-60.1007	135.543	62.6957	-91.5863	164.624	57.7932	-23.1487	168.317	61.7557	-52.9628	167.011	58.8297	-74.7283	184.132	44.9986	-9.55633	191.485	44.4213	-32.0115	200.283	40.6989	-52.9164	166.631	61.6864	23.4155	168.125	62.7931	56.0829	133.211	64.5643	39.1012	
65	0.541667	106.522	35.5321	45.7268	94.0177	18.9307	22.5403	78.6087	6.63772	1.55677	73.5123	-5.81914	-16.9278	118.463	58.4417	-25.3515	113.952	59.357	-55.3826	108.588	59.3998	-76.59	145.766	63.4223	-36.5398	141.67	62.2168	-60.6176	135.447	58.8323	-90.8657	162.908	56.8478	-26.7882	164.844	59.1175	-51.6824	166.141	56.1511	-79.1243	185.832	43.9146	-12.526	195.928	40.5903	-34.8441	200.436	36.1189	-53.607	166.523	60.9042	25.1702	166.382	61.2517	55.9248	135.258	65.6964	35.0837	
66	0.55	106.674	34.0169	44.5475	94.9664	15.5141	24.2174	79.0632	1.39298	-0.215135	76.1515	-11.2965	-16.9186	119.66	55.3187	-30.4626	109.625	55.9888	-52.9034	104.632	54.468	-81.2917	144.553	60.1237	-34.0603	141.276	59.8312	-62.529	138.35	55.2719	-95.938	166.127	56.3396	-29.7715	167.984	57.1988	-55.5527	167.993	53.3877	-78.6878	187.846	43.331	-12.0555	195.418	40.1305	-30.6091	206.515	31.7055	-54.4878	169.082	61.7411	20.3963	168.873	61.2861	51.7994	134.742	62.9686	36.5673	
67	0.558333	106.788	33.0156	44.8696	96.0103	13.3761	23.2782	85.3052	-1.58627	-0.756633	77.287	-15.7543	-15.0282	120.255	53.2816	-30.7675	109.491	51.4452	-55.9118	107.252	48.5449	-81.4101	141.335	58.0204	-38.7198	141.665	56.8173	-63.2297	138.499	51.5064	-93.7872	167.285	53.4285	-25.6268	167.106	54.349	-52.2286	169.024	48.8561	-79.2298	190.667	41.2926	-11.3198	195.864	38.1406	-36.9655	205.543	29.8415	-54.4387	167.392	60.433	23.0658	171.396	62.6161	53.9489	132.665	63.1113	33.3161	
68	0.566667	108.746	31.6929	44.6012	98.9474	12.5629	24.612	82.5247	-5.36969	1.73034	79.2155	-18.5934	-15.6475	120.965	51.8191	-29.0281	113.542	50.4373	-55.4244	104.586	43.595	-79.9053	145.236	58.4828	-40.1306	142.086	54.5858	-64.3329	138.08	46.7433	-95.7695	168.032	53.1161	-28.481	165.228	52.01	-54.0062	165.677	44.5607	-83.5995	188.606	41.1189	-14.0585	193.454	36.9247	-33.2511	200.699	25.7294	-58.9506	165.638	60.6407	22.6113	170.457	62.3152	49.6662	137.623	62.7935	32.7968	
69	0.575	113.805	31.5726	40.0541	101.16	11.259	22.7823	87.6102	-6.63718	-2.34301	85.7845	-20.8092	-16.0664	116.682	52.5489	-32.8425	109.982	48.827	-57.5255	104.523	39.7177	-80.799	142.354	58.5746	-38.1919	137.55	54.2863	-65.9444	139.113	40.3797	-96.9994	165.77	52.6982	-28.3099	162.711	50.1355	-55.0257	167.765	37.7047	-83.4643	185.304	41.9647	-18.0421	195.876	35.69	-35.9692	198.449	22.1648	-57.2349	168.995	61.1828	18.6598	167.252	62.4612	51.7435	134.418	61.3057	36.4273	
70	0.583333	115.197	30.7645	43.2565	102.957	9.25233	20.5252	88.4839	-8.53053	-1.29189	89.8662	-22.3579	-20.3262	119.202	53.7154	-34.1424	108.413	48.1152	-58.2465	101.426	32.1909	-82.9126	144.731	59.2363	-37.6218	134.57	53.9841	-64.5616	135.733	34.7796	-93.1809	161.875	52.4515	-29.2311	160.584	49.6873	-56.8614	159.188	32.6884	-81.9082	183.724	42.9329	-19.7922	190.084	33.4788	-42.7875	188.875	20.7303	-59.2993	169.309	59.76	17.3574	170.247	61.3736	46.8522	136.998	64.1249	34.0763	
71	0.591667	115.657	30.8455	42.9427	100.539	9.3678	23.5707	95.2926	-7.50701	-3.10149	94.8292	-22.9165	-23.8571	117.345	54.2608	-29.9401	110.228	45.849	-58.8179	101.07	30.3551	-76.5579	139.113	58.53	-39.2212	133.478	51.6582	-65.1392	129.031	23.6391	-92.0645	161.362	51.7174	-31.2875	162.885	44.9863	-57.2762	156.759	22.8776	-81.6849	183.912	39.7462	-17.5606	184.117	33.3931	-40.9685	183.2	15.1921	-57.313	170.745	61.3689	21.0106	171.795	60.3553	52.6134	138.109	61.0509	38.9621	
72	0.6	117.304	32.247	47.2484	102.819	10.4534	20.6974	96.464	-5.63604	-3.54143	100.65	-19.8905	-23.4661	120.051	56.1168	-26.6033	108.869	46.7914	-58.5008	103.588	26.4485	-76.3086	140.47	58.9087	-37.5398	135.666	48.9073	-66.8185	127.978	21.0941	-85.2475	160.543	52.5203	-28.8301	156.015	43.1955	-58.933	156.602	18.1357	-77.207	180.525	40.5163	-16.9751	179.284	29.536	-44.0935	178.479	8.25385	-60.1521	170.738	61.5707	21.1135	175.211	61.1179	47.212	136.743	63.2887	35.3128	
73	0.608333	117.44	34.1101	44.1144	100.486	11.7206	23.6666	97.948	-3.61033	-1.98478	102.914	-15.5542	-22.7155	118.705	59.9614	-26.4647	105.682	51.3877	-54.3987	102.243	31.0952	-72.5161	139.398	61.8004	-35.7533	134.189	51.6574	-62.7487	127.495	19.8979	-80.8926	159.367	54.5243	-27.6247	159.009	44.398	-59.261	153.709	17.5413	-73.6856	181.074	41.7128	-17.8382	180.824	30.8035	-43.6236	173.053	8.21049	-59.3389	168.746	61.2963	19.83	174.671	60.7572	51.2331	138.632	64.0927	40.0118	
